<mxfile host="app.diagrams.net" modified="2023-04-25T16:46:57.108Z" agent="Mozilla/5.0 (Windows NT 10.0; Win64; x64) AppleWebKit/537.36 (KHTML, like Gecko) Chrome/112.0.0.0 Safari/537.36" version="21.2.1" etag="Nd34KWTdf8da_eCkCFnf" type="github">
  <diagram name="Trang-1" id="hTH1nCLmqWuOZP3FO7Kr">
    <mxGraphModel>
      <root>
        <mxCell id="0" />
        <mxCell id="1" parent="0" />
      </root>
    </mxGraphModel>
  </diagram>
</mxfile>
